<svg width="378.000000" height="520.000000" viewBox="0 0 378 520" fill="none" xmlns="http://www.w3.org/2000/svg" xmlns:xlink="http://www.w3.org/1999/xlink">
	<desc>
			Created with Pixso.
	</desc>
	<defs>
		<clipPath id="clip4_1">
			<rect id="second" width="378.000000" height="520.000000" fill="white" fill-opacity="0"/>
		</clipPath>
	</defs>
	<g clip-path="url(#clip4_1)">
		<path id="path" d="M368.65 520L9.34 520C3.11 520 0 517.12 0 511.38L0 489.11C0 460.38 5.5 434.53 16.52 411.54C28.02 388.56 42.63 369.88 60.36 355.52C78.57 340.68 98.45 327.27 120.01 315.3C141.57 303.33 163.12 292.32 184.68 282.26C206.24 271.73 226.12 260.95 244.33 249.94C284.57 225.04 304.7 194.16 304.7 157.29C304.7 129.52 293.92 106.05 272.36 86.9C251.28 67.27 222.53 57.45 186.12 57.45C149.71 57.45 121.2 67.27 100.6 86.9C80 106.53 69.7 131.43 69.7 161.6C69.7 167.34 66.59 170.22 60.36 170.22L13.65 170.22C7.9 170.22 5.03 167.34 5.03 161.6C5.03 117.07 20.6 79 51.74 47.4C83.36 15.8 128.15 0 186.12 0C244.57 0 289.6 15.08 321.22 45.24C353.32 74.93 369.37 110.84 369.37 152.98C369.37 181.71 362.19 207.56 347.81 230.55C333.44 253.53 315.47 271.97 293.92 285.85C272.36 299.26 248.88 312.91 223.49 326.79C198.1 340.2 174.38 352.65 152.35 364.14C130.31 375.15 111.38 389.52 95.57 407.23C80.24 424.95 71.86 444.58 70.42 466.13L314.76 466.13L314.76 414.42C314.76 408.67 317.63 405.8 323.38 405.8L368.65 405.8C374.88 405.8 378 408.67 378 414.42L378 511.38C378 517.12 374.88 520 368.65 520Z" fill="#EFE4D7" fill-opacity="1.000000" fill-rule="nonzero"/>
		<path id="клика" d="M284.7 425.27Q281.4 422.19 275.23 422.19Q271.66 422.19 268.42 423.22Q268.28 423.26 268.14 423.31Q264.79 424.42 262.4 426.46L264.32 429.64Q266.3 427.89 269.05 426.91Q270.07 426.54 271.13 426.31Q272.92 425.91 274.81 425.91Q279.2 425.91 281.47 428.05Q281.75 428.31 281.99 428.59Q283.76 430.67 283.76 434.25L283.76 436.17L273.74 436.17Q267.38 436.17 264.47 438.63Q263.23 439.67 262.52 441Q261.55 442.8 261.55 445.12Q261.55 447.35 262.46 449.11Q263.24 450.61 264.67 451.77Q267.79 454.29 273.08 454.29Q276.92 454.29 279.7 452.91Q281.84 451.86 283.19 450.17Q283.6 449.65 283.94 449.07L283.94 454L288.02 454L288.02 434.44Q288.02 428.92 285.28 425.86Q285.01 425.56 284.71 425.28L284.7 425.27ZM120.32 439.96L127.52 439.96L139.16 454L144.2 454L130.87 437.74L143.29 422.44L138.68 422.44L127.57 436.3L120.32 436.3L120.32 422.44L116.06 422.44L116.06 454L120.32 454L120.32 439.96ZM176.72 454L176.72 422.44L153.62 422.44L153.07 433.72Q152.78 439.23 152.36 442.6Q151.93 445.95 150.67 448.24Q149.98 449.49 148.91 450.05Q148.05 450.51 146.95 450.51Q146.54 450.51 145.46 450.27L145.15 453.94Q146.95 454.42 148.21 454.42Q149.9 454.42 151.22 453.72Q153.5 452.49 154.64 449.15Q156.44 443.86 156.91 434.02L157.34 426.22L172.45 426.22L172.45 454L176.72 454ZM193.1 422.44L188.84 422.44L188.84 454L192.68 454L213.67 428.92L213.67 454L217.93 454L217.93 422.44L214.15 422.44L193.1 447.52L193.1 422.44ZM234.38 439.96L241.58 439.96L253.22 454L258.26 454L244.93 437.74L257.35 422.44L252.74 422.44L241.63 436.3L234.38 436.3L234.38 422.44L230.12 422.44L230.12 454L234.38 454L234.38 439.96ZM279.85 449.34Q277.3 450.93 273.74 450.93Q269.96 450.93 267.85 449.35Q266.92 448.64 266.41 447.71Q265.76 446.53 265.76 445Q265.76 443.16 266.62 441.92Q268.4 439.36 273.86 439.36L283.76 439.36L283.76 444.52Q282.82 446.86 281.13 448.37Q280.57 448.88 279.92 449.29Q279.89 449.31 279.85 449.34Z" fill="#EFE4D7" fill-opacity="1.000000" fill-rule="evenodd"/>
	</g>
</svg>
