<svg width="28.215302" height="23.961670" viewBox="0 0 28.2153 23.9617" fill="none" xmlns="http://www.w3.org/2000/svg" xmlns:xlink="http://www.w3.org/1999/xlink">
	<desc>
			Created with Pixso.
	</desc>
	<defs/>
	<path id="Форма 2" d="M0.57 0.84C0.36 0.54 0.17 0.26 0 0C1.12 0.05 2.29 0.22 3.49 0.51C4.81 0.83 6.21 1.29 7.69 1.91C8.91 2.42 10.28 3.07 11.78 3.87C12.37 4.18 13.04 4.54 13.78 4.96C14.22 5.2 14.87 5.57 15.74 6.06C17.21 6.9 18.3 7.51 19.01 7.89C20.2 8.53 21.26 9.05 22.18 9.45C23.29 9.94 24.31 10.31 25.24 10.56C26.3 10.84 27.29 10.98 28.21 10.98L28.21 12.98C27.29 12.98 26.3 13.12 25.24 13.4C24.31 13.64 23.29 14.01 22.18 14.5C21.26 14.9 20.2 15.42 19.01 16.06C18.3 16.45 17.21 17.05 15.74 17.89C14.87 18.38 14.22 18.75 13.78 19C13.04 19.41 12.37 19.77 11.78 20.09C10.28 20.88 8.91 21.53 7.69 22.04C6.21 22.66 4.81 23.13 3.49 23.44C2.29 23.73 1.12 23.9 0 23.96C0.75 22.81 1.41 21.77 1.97 20.83C2.78 19.49 3.43 18.28 3.93 17.2C4.44 16.09 4.82 15.06 5.07 14.13C5.31 13.18 5.43 12.28 5.43 11.42C5.43 10.58 5.31 9.74 5.08 8.91C4.86 8.14 4.53 7.31 4.09 6.44C3.71 5.7 3.2 4.83 2.56 3.83C2.17 3.21 1.5 2.22 0.57 0.84Z" fill="#FF5500" fill-opacity="1.000000" fill-rule="evenodd"/>
</svg>
