<svg width="953" height="693" viewBox="0 0 953 693" fill="none" xmlns="http://www.w3.org/2000/svg">
<path d="M349.503 328.034V328.981C371.6 328.981 397.8 340.029 428.104 362.126C444.519 374.121 458.093 392.114 468.825 416.105C480.189 439.464 485.871 466.612 485.871 497.547C485.871 556.261 462.828 603.611 416.74 639.597C370.653 674.952 310.045 692.629 234.916 692.629C197.668 692.629 168.311 689.157 146.845 682.212C126.011 674.636 109.281 667.691 96.6544 661.378C84.0277 654.433 73.6107 648.12 65.4034 642.438C57.8274 636.756 49.9357 630.443 41.7284 623.498C30.9957 614.028 20.8944 602.98 11.4244 590.353L4.7954 581.83C1.63874 579.305 0.0604042 576.779 0.0604042 574.254C0.0604042 571.729 1.63874 568.888 4.7954 565.731L45.5164 527.851C50.5671 522.8 56.2491 522.8 62.5624 527.851L77.7144 543.95C105.493 573.623 130.115 592.563 151.58 600.77C178.728 610.871 206.506 615.922 234.916 615.922C285.423 615.922 325.513 604.242 355.185 580.883C385.489 557.524 400.641 526.273 400.641 487.13C400.641 406.951 346.347 366.861 237.757 366.861H199.877C192.301 366.861 188.513 362.757 188.513 354.55V311.935C188.513 303.728 192.301 299.624 199.877 299.624H230.181C263.642 299.624 291.736 294.573 314.464 284.472C357.395 264.269 378.86 232.387 378.86 188.825C378.86 156.627 367.181 129.795 343.821 108.33C320.462 86.8646 286.686 76.1319 242.492 76.1319C198.93 76.1319 166.101 87.496 144.004 110.224C122.539 132.321 111.806 157.574 111.806 185.984C111.806 193.56 108.018 197.348 100.442 197.348H42.6754C35.0994 197.348 31.3114 193.56 31.3114 185.984C31.3114 129.795 50.2514 84.9706 88.1314 51.51C126.011 17.418 179.359 0.371965 248.174 0.371965C316.99 0.371965 370.337 18.9963 408.217 56.245C446.097 92.8623 465.037 133.899 465.037 179.355C465.037 224.811 450.517 261.113 421.475 288.26C392.434 314.776 368.443 328.034 349.503 328.034ZM985.739 596.982C937.758 660.747 870.837 692.629 784.975 692.629C699.114 692.629 631.877 660.747 583.264 596.982C535.283 533.217 511.292 449.566 511.292 346.027C511.292 242.488 535.914 159.152 585.158 96.019C634.402 32.2543 701.008 0.371965 784.975 0.371965C868.943 0.371965 935.548 32.2543 984.792 96.019C1034.04 159.152 1058.66 242.488 1058.66 346.027C1058.66 448.934 1034.35 532.586 985.739 596.982ZM648.607 544.897C681.437 592.247 726.893 615.922 784.975 615.922C843.058 615.922 888.514 592.563 921.343 545.844C954.173 498.494 970.587 432.204 970.587 346.974C970.587 261.744 953.857 195.138 920.396 147.157C887.567 99.1756 842.427 75.185 784.975 75.185C727.524 75.185 682.068 99.1756 648.607 147.157C615.778 195.138 599.363 261.744 599.363 346.974C599.363 431.573 615.778 497.547 648.607 544.897Z" fill="#EFE4D7"/>
</svg>
