<svg width="1010" height="505" viewBox="0 0 1010 505" fill="none" xmlns="http://www.w3.org/2000/svg">
<path d="M255.094 239.029V239.72C271.224 239.72 290.351 247.779 312.473 263.899C324.455 272.649 334.364 285.775 342.199 303.276C350.495 320.317 354.643 340.121 354.643 362.688C354.643 405.52 337.821 440.062 304.177 466.313C270.533 492.104 226.289 505 171.445 505C144.254 505 122.823 502.467 107.153 497.401C91.9444 491.874 79.7312 486.808 70.5138 482.202C61.2963 477.136 53.6918 472.531 47.7005 468.386C42.17 464.241 36.4091 459.635 30.4177 454.569C22.5828 447.661 15.2088 439.601 8.29573 430.39L3.45656 424.172C1.15219 422.33 0 420.488 0 418.646C0 416.803 1.15219 414.731 3.45656 412.428L33.1829 384.795C36.8699 381.11 41.0178 381.11 45.6265 384.795L56.6875 396.539C76.966 418.185 94.9401 432.002 110.61 437.989C130.427 445.358 150.706 449.042 171.445 449.042C208.315 449.042 237.581 440.522 259.242 423.482C281.364 406.441 292.425 383.643 292.425 355.089C292.425 296.598 252.79 267.353 173.519 267.353H145.867C140.336 267.353 137.571 264.359 137.571 258.372V227.285C137.571 221.297 140.336 218.304 145.867 218.304H167.989C192.415 218.304 212.924 214.619 229.515 207.25C260.855 192.513 276.525 169.254 276.525 137.476C276.525 113.988 267.998 94.414 250.946 78.7551C233.894 63.0962 209.237 55.2667 176.976 55.2667C145.175 55.2667 121.21 63.5568 105.079 80.1368C89.4096 96.2563 81.5747 114.679 81.5747 135.404C81.5747 140.93 78.8095 143.694 73.279 143.694H31.109C25.5785 143.694 22.8133 140.93 22.8133 135.404C22.8133 94.414 36.6395 61.7145 64.292 37.3051C91.9444 12.435 130.888 0 181.124 0C231.359 0 270.303 13.5864 297.955 40.7592C325.608 67.4715 339.434 97.4076 339.434 130.568C339.434 163.728 328.834 190.21 307.634 210.014C286.433 229.357 268.92 239.029 255.094 239.029Z" fill="#EFE4D7"/>
<path d="M726.46 435.226C691.434 481.742 642.581 505 579.902 505C517.223 505 468.14 481.742 432.653 435.226C397.626 388.71 380.113 327.686 380.113 252.155C380.113 176.623 398.087 115.83 434.035 69.7743C469.984 23.2581 518.606 0 579.902 0C641.198 0 689.821 23.2581 725.769 69.7743C761.717 115.83 779.691 176.623 779.691 252.155C779.691 327.225 761.948 388.249 726.46 435.226ZM480.353 397.23C504.319 431.772 537.502 449.042 579.902 449.042C622.303 449.042 655.486 432.002 679.451 397.921C703.417 363.379 715.399 315.021 715.399 252.845C715.399 190.67 703.186 142.082 678.76 107.079C654.794 72.0771 621.842 54.5759 579.902 54.5759C537.963 54.5759 504.78 72.0771 480.353 107.079C456.388 142.082 444.405 190.67 444.405 252.845C444.405 314.56 456.388 362.688 480.353 397.23Z" fill="#EFE4D7"/>
<path d="M846.96 500.067C842.935 500.067 840.56 495.554 842.839 492.236L952.131 333.102C953.064 331.744 954.605 330.933 956.253 330.933H973.04C977.065 330.933 979.44 335.446 977.161 338.764L867.869 497.898C866.936 499.256 865.395 500.067 863.747 500.067H846.96ZM852.284 422.265C844.022 422.265 836.731 420.413 830.413 416.708C824.095 412.842 819.073 407.446 815.346 400.52C811.782 393.432 810 385.136 810 375.633C810 366.129 811.782 357.914 815.346 350.987C819.073 344.061 824.095 338.665 830.413 334.799C836.731 330.933 844.022 329 852.284 329C860.547 329 867.837 330.933 874.156 334.799C880.474 338.665 885.415 344.061 888.979 350.987C892.544 357.914 894.326 366.129 894.326 375.633C894.326 385.136 892.544 393.432 888.979 400.52C885.415 407.446 880.474 412.842 874.156 416.708C867.837 420.413 860.547 422.265 852.284 422.265ZM852.284 402.453C857.631 402.453 861.924 400.278 865.164 395.929C868.404 391.419 870.024 384.653 870.024 375.633C870.024 366.612 868.404 359.927 865.164 355.578C861.924 351.068 857.631 348.813 852.284 348.813C847.1 348.813 842.807 351.068 839.405 355.578C836.164 359.927 834.544 366.612 834.544 375.633C834.544 384.492 836.164 391.177 839.405 395.687C842.807 400.197 847.1 402.453 852.284 402.453ZM967.716 502C959.615 502 952.325 500.148 945.844 496.443C939.526 492.577 934.585 487.181 931.021 480.254C927.456 473.167 925.674 464.871 925.674 455.367C925.674 445.864 927.456 437.648 931.021 430.722C934.585 423.796 939.526 418.399 945.844 414.534C952.325 410.668 959.615 408.735 967.716 408.735C976.14 408.735 983.512 410.668 989.83 414.534C996.148 418.399 1001.09 423.796 1004.65 430.722C1008.22 437.648 1010 445.864 1010 455.367C1010 464.871 1008.22 473.167 1004.65 480.254C1001.09 487.181 996.148 492.577 989.83 496.443C983.512 500.148 976.14 502 967.716 502ZM967.716 482.187C973.062 482.187 977.355 480.013 980.595 475.663C983.836 471.153 985.456 464.388 985.456 455.367C985.456 446.508 983.836 439.823 980.595 435.313C977.355 430.803 973.062 428.547 967.716 428.547C962.531 428.547 958.238 430.803 954.836 435.313C951.596 439.662 949.976 446.347 949.976 455.367C949.976 464.388 951.596 471.153 954.836 475.663C958.238 480.013 962.531 482.187 967.716 482.187Z" fill="#EFE4D7"/>
</svg>
