<svg width="144" height="144" viewBox="0 0 144 144" fill="none" xmlns="http://www.w3.org/2000/svg">
<path d="M0 0.000244141H4.96552V4.96576H0V0.000244141ZM4.96552 0.000244141H9.93103V4.96576H4.96552V0.000244141ZM9.93103 0.000244141H14.8966V4.96576H9.93103V0.000244141ZM14.8966 0.000244141H19.8621V4.96576H14.8966V0.000244141ZM19.8621 0.000244141H24.8276V4.96576H19.8621V0.000244141ZM24.8276 0.000244141H29.7931V4.96576H24.8276V0.000244141ZM29.7931 0.000244141H34.7586V4.96576H29.7931V0.000244141ZM39.7241 0.000244141H44.6897V4.96576H39.7241V0.000244141ZM44.6897 0.000244141H49.6552V4.96576H44.6897V0.000244141ZM49.6552 0.000244141H54.6207V4.96576H49.6552V0.000244141ZM59.5862 0.000244141H64.5517V4.96576H59.5862V0.000244141ZM64.5517 0.000244141H69.5172V4.96576H64.5517V0.000244141ZM69.5172 0.000244141H74.4828V4.96576H69.5172V0.000244141ZM79.4483 0.000244141H84.4138V4.96576H79.4483V0.000244141ZM84.4138 0.000244141H89.3793V4.96576H84.4138V0.000244141ZM94.3448 0.000244141H99.3103V4.96576H94.3448V0.000244141ZM109.241 0.000244141H114.207V4.96576H109.241V0.000244141ZM114.207 0.000244141H119.172V4.96576H114.207V0.000244141ZM119.172 0.000244141H124.138V4.96576H119.172V0.000244141ZM124.138 0.000244141H129.103V4.96576H124.138V0.000244141ZM129.103 0.000244141H134.069V4.96576H129.103V0.000244141ZM134.069 0.000244141H139.034V4.96576H134.069V0.000244141ZM139.034 0.000244141H144V4.96576H139.034V0.000244141ZM0 4.96576H4.96552V9.93128H0V4.96576ZM29.7931 4.96576H34.7586V9.93128H29.7931V4.96576ZM39.7241 4.96576H44.6897V9.93128H39.7241V4.96576ZM44.6897 4.96576H49.6552V9.93128H44.6897V4.96576ZM54.6207 4.96576H59.5862V9.93128H54.6207V4.96576ZM64.5517 4.96576H69.5172V9.93128H64.5517V4.96576ZM79.4483 4.96576H84.4138V9.93128H79.4483V4.96576ZM84.4138 4.96576H89.3793V9.93128H84.4138V4.96576ZM109.241 4.96576H114.207V9.93128H109.241V4.96576ZM139.034 4.96576H144V9.93128H139.034V4.96576ZM0 9.93128H4.96552V14.8968H0V9.93128ZM9.93103 9.93128H14.8966V14.8968H9.93103V9.93128ZM14.8966 9.93128H19.8621V14.8968H14.8966V9.93128ZM19.8621 9.93128H24.8276V14.8968H19.8621V9.93128ZM29.7931 9.93128H34.7586V14.8968H29.7931V9.93128ZM44.6897 9.93128H49.6552V14.8968H44.6897V9.93128ZM49.6552 9.93128H54.6207V14.8968H49.6552V9.93128ZM59.5862 9.93128H64.5517V14.8968H59.5862V9.93128ZM64.5517 9.93128H69.5172V14.8968H64.5517V9.93128ZM74.4828 9.93128H79.4483V14.8968H74.4828V9.93128ZM94.3448 9.93128H99.3103V14.8968H94.3448V9.93128ZM99.3103 9.93128H104.276V14.8968H99.3103V9.93128ZM109.241 9.93128H114.207V14.8968H109.241V9.93128ZM119.172 9.93128H124.138V14.8968H119.172V9.93128ZM124.138 9.93128H129.103V14.8968H124.138V9.93128ZM129.103 9.93128H134.069V14.8968H129.103V9.93128ZM139.034 9.93128H144V14.8968H139.034V9.93128ZM0 14.8968H4.96552V19.8623H0V14.8968ZM9.93103 14.8968H14.8966V19.8623H9.93103V14.8968ZM14.8966 14.8968H19.8621V19.8623H14.8966V14.8968ZM19.8621 14.8968H24.8276V19.8623H19.8621V14.8968ZM29.7931 14.8968H34.7586V19.8623H29.7931V14.8968ZM54.6207 14.8968H59.5862V19.8623H54.6207V14.8968ZM74.4828 14.8968H79.4483V19.8623H74.4828V14.8968ZM79.4483 14.8968H84.4138V19.8623H79.4483V14.8968ZM84.4138 14.8968H89.3793V19.8623H84.4138V14.8968ZM89.3793 14.8968H94.3448V19.8623H89.3793V14.8968ZM109.241 14.8968H114.207V19.8623H109.241V14.8968ZM119.172 14.8968H124.138V19.8623H119.172V14.8968ZM124.138 14.8968H129.103V19.8623H124.138V14.8968ZM129.103 14.8968H134.069V19.8623H129.103V14.8968ZM139.034 14.8968H144V19.8623H139.034V14.8968ZM0 19.8623H4.96552V24.8278H0V19.8623ZM9.93103 19.8623H14.8966V24.8278H9.93103V19.8623ZM14.8966 19.8623H19.8621V24.8278H14.8966V19.8623ZM19.8621 19.8623H24.8276V24.8278H19.8621V19.8623ZM29.7931 19.8623H34.7586V24.8278H29.7931V19.8623ZM49.6552 19.8623H54.6207V24.8278H49.6552V19.8623ZM54.6207 19.8623H59.5862V24.8278H54.6207V19.8623ZM74.4828 19.8623H79.4483V24.8278H74.4828V19.8623ZM79.4483 19.8623H84.4138V24.8278H79.4483V19.8623ZM89.3793 19.8623H94.3448V24.8278H89.3793V19.8623ZM94.3448 19.8623H99.3103V24.8278H94.3448V19.8623ZM99.3103 19.8623H104.276V24.8278H99.3103V19.8623ZM109.241 19.8623H114.207V24.8278H109.241V19.8623ZM119.172 19.8623H124.138V24.8278H119.172V19.8623ZM124.138 19.8623H129.103V24.8278H124.138V19.8623ZM129.103 19.8623H134.069V24.8278H129.103V19.8623ZM139.034 19.8623H144V24.8278H139.034V19.8623ZM0 24.8278H4.96552V29.7933H0V24.8278ZM29.7931 24.8278H34.7586V29.7933H29.7931V24.8278ZM64.5517 24.8278H69.5172V29.7933H64.5517V24.8278ZM74.4828 24.8278H79.4483V29.7933H74.4828V24.8278ZM89.3793 24.8278H94.3448V29.7933H89.3793V24.8278ZM99.3103 24.8278H104.276V29.7933H99.3103V24.8278ZM109.241 24.8278H114.207V29.7933H109.241V24.8278ZM139.034 24.8278H144V29.7933H139.034V24.8278ZM0 29.7933H4.96552V34.7589H0V29.7933ZM4.96552 29.7933H9.93103V34.7589H4.96552V29.7933ZM9.93103 29.7933H14.8966V34.7589H9.93103V29.7933ZM14.8966 29.7933H19.8621V34.7589H14.8966V29.7933ZM19.8621 29.7933H24.8276V34.7589H19.8621V29.7933ZM24.8276 29.7933H29.7931V34.7589H24.8276V29.7933ZM29.7931 29.7933H34.7586V34.7589H29.7931V29.7933ZM39.7241 29.7933H44.6897V34.7589H39.7241V29.7933ZM49.6552 29.7933H54.6207V34.7589H49.6552V29.7933ZM59.5862 29.7933H64.5517V34.7589H59.5862V29.7933ZM69.5172 29.7933H74.4828V34.7589H69.5172V29.7933ZM79.4483 29.7933H84.4138V34.7589H79.4483V29.7933ZM89.3793 29.7933H94.3448V34.7589H89.3793V29.7933ZM99.3103 29.7933H104.276V34.7589H99.3103V29.7933ZM109.241 29.7933H114.207V34.7589H109.241V29.7933ZM114.207 29.7933H119.172V34.7589H114.207V29.7933ZM119.172 29.7933H124.138V34.7589H119.172V29.7933ZM124.138 29.7933H129.103V34.7589H124.138V29.7933ZM129.103 29.7933H134.069V34.7589H129.103V29.7933ZM134.069 29.7933H139.034V34.7589H134.069V29.7933ZM139.034 29.7933H144V34.7589H139.034V29.7933ZM44.6897 34.7589H49.6552V39.7244H44.6897V34.7589ZM49.6552 34.7589H54.6207V39.7244H49.6552V34.7589ZM54.6207 34.7589H59.5862V39.7244H54.6207V34.7589ZM64.5517 34.7589H69.5172V39.7244H64.5517V34.7589ZM69.5172 34.7589H74.4828V39.7244H69.5172V34.7589ZM74.4828 34.7589H79.4483V39.7244H74.4828V34.7589ZM79.4483 34.7589H84.4138V39.7244H79.4483V34.7589ZM89.3793 34.7589H94.3448V39.7244H89.3793V34.7589ZM94.3448 34.7589H99.3103V39.7244H94.3448V34.7589ZM99.3103 34.7589H104.276V39.7244H99.3103V34.7589ZM4.96552 39.7244H9.93103V44.6899H4.96552V39.7244ZM29.7931 39.7244H34.7586V44.6899H29.7931V39.7244ZM34.7586 39.7244H39.7241V44.6899H34.7586V39.7244ZM39.7241 39.7244H44.6897V44.6899H39.7241V39.7244ZM54.6207 39.7244H59.5862V44.6899H54.6207V39.7244ZM59.5862 39.7244H64.5517V44.6899H59.5862V39.7244ZM64.5517 39.7244H69.5172V44.6899H64.5517V39.7244ZM69.5172 39.7244H74.4828V44.6899H69.5172V39.7244ZM74.4828 39.7244H79.4483V44.6899H74.4828V39.7244ZM79.4483 39.7244H84.4138V44.6899H79.4483V39.7244ZM104.276 39.7244H109.241V44.6899H104.276V39.7244ZM134.069 39.7244H139.034V44.6899H134.069V39.7244ZM139.034 39.7244H144V44.6899H139.034V39.7244ZM0 44.6899H4.96552V49.6554H0V44.6899ZM4.96552 44.6899H9.93103V49.6554H4.96552V44.6899ZM14.8966 44.6899H19.8621V49.6554H14.8966V44.6899ZM24.8276 44.6899H29.7931V49.6554H24.8276V44.6899ZM34.7586 44.6899H39.7241V49.6554H34.7586V44.6899ZM49.6552 44.6899H54.6207V49.6554H49.6552V44.6899ZM59.5862 44.6899H64.5517V49.6554H59.5862V44.6899ZM84.4138 44.6899H89.3793V49.6554H84.4138V44.6899ZM104.276 44.6899H109.241V49.6554H104.276V44.6899ZM114.207 44.6899H119.172V49.6554H114.207V44.6899ZM119.172 44.6899H124.138V49.6554H119.172V44.6899ZM124.138 44.6899H129.103V49.6554H124.138V44.6899ZM134.069 44.6899H139.034V49.6554H134.069V44.6899ZM0 49.6554H4.96552V54.6209H0V49.6554ZM4.96552 49.6554H9.93103V54.6209H4.96552V49.6554ZM14.8966 49.6554H19.8621V54.6209H14.8966V49.6554ZM19.8621 49.6554H24.8276V54.6209H19.8621V49.6554ZM29.7931 49.6554H34.7586V54.6209H29.7931V49.6554ZM44.6897 49.6554H49.6552V54.6209H44.6897V49.6554ZM49.6552 49.6554H54.6207V54.6209H49.6552V49.6554ZM59.5862 49.6554H64.5517V54.6209H59.5862V49.6554ZM69.5172 49.6554H74.4828V54.6209H69.5172V49.6554ZM84.4138 49.6554H89.3793V54.6209H84.4138V49.6554ZM104.276 49.6554H109.241V54.6209H104.276V49.6554ZM109.241 49.6554H114.207V54.6209H109.241V49.6554ZM129.103 49.6554H134.069V54.6209H129.103V49.6554ZM4.96552 54.6209H9.93103V59.5865H4.96552V54.6209ZM9.93103 54.6209H14.8966V59.5865H9.93103V54.6209ZM14.8966 54.6209H19.8621V59.5865H14.8966V54.6209ZM44.6897 54.6209H49.6552V59.5865H44.6897V54.6209ZM64.5517 54.6209H69.5172V59.5865H64.5517V54.6209ZM74.4828 54.6209H79.4483V59.5865H74.4828V54.6209ZM89.3793 54.6209H94.3448V59.5865H89.3793V54.6209ZM109.241 54.6209H114.207V59.5865H109.241V54.6209ZM114.207 54.6209H119.172V59.5865H114.207V54.6209ZM119.172 54.6209H124.138V59.5865H119.172V54.6209ZM124.138 54.6209H129.103V59.5865H124.138V54.6209ZM0 59.5865H4.96552V64.552H0V59.5865ZM4.96552 59.5865H9.93103V64.552H4.96552V59.5865ZM9.93103 59.5865H14.8966V64.552H9.93103V59.5865ZM19.8621 59.5865H24.8276V64.552H19.8621V59.5865ZM29.7931 59.5865H34.7586V64.552H29.7931V59.5865ZM34.7586 59.5865H39.7241V64.552H34.7586V59.5865ZM44.6897 59.5865H49.6552V64.552H44.6897V59.5865ZM54.6207 59.5865H59.5862V64.552H54.6207V59.5865ZM69.5172 59.5865H74.4828V64.552H69.5172V59.5865ZM74.4828 59.5865H79.4483V64.552H74.4828V59.5865ZM94.3448 59.5865H99.3103V64.552H94.3448V59.5865ZM104.276 59.5865H109.241V64.552H104.276V59.5865ZM109.241 59.5865H114.207V64.552H109.241V59.5865ZM134.069 59.5865H139.034V64.552H134.069V59.5865ZM4.96552 64.552H9.93103V69.5175H4.96552V64.552ZM9.93103 64.552H14.8966V69.5175H9.93103V64.552ZM14.8966 64.552H19.8621V69.5175H14.8966V64.552ZM24.8276 64.552H29.7931V69.5175H24.8276V64.552ZM44.6897 64.552H49.6552V69.5175H44.6897V64.552ZM54.6207 64.552H59.5862V69.5175H54.6207V64.552ZM59.5862 64.552H64.5517V69.5175H59.5862V64.552ZM69.5172 64.552H74.4828V69.5175H69.5172V64.552ZM79.4483 64.552H84.4138V69.5175H79.4483V64.552ZM89.3793 64.552H94.3448V69.5175H89.3793V64.552ZM94.3448 64.552H99.3103V69.5175H94.3448V64.552ZM99.3103 64.552H104.276V69.5175H99.3103V64.552ZM109.241 64.552H114.207V69.5175H109.241V64.552ZM119.172 64.552H124.138V69.5175H119.172V64.552ZM124.138 64.552H129.103V69.5175H124.138V64.552ZM139.034 64.552H144V69.5175H139.034V64.552ZM4.96552 69.5175H9.93103V74.483H4.96552V69.5175ZM14.8966 69.5175H19.8621V74.483H14.8966V69.5175ZM24.8276 69.5175H29.7931V74.483H24.8276V69.5175ZM29.7931 69.5175H34.7586V74.483H29.7931V69.5175ZM34.7586 69.5175H39.7241V74.483H34.7586V69.5175ZM39.7241 69.5175H44.6897V74.483H39.7241V69.5175ZM44.6897 69.5175H49.6552V74.483H44.6897V69.5175ZM59.5862 69.5175H64.5517V74.483H59.5862V69.5175ZM64.5517 69.5175H69.5172V74.483H64.5517V69.5175ZM74.4828 69.5175H79.4483V74.483H74.4828V69.5175ZM79.4483 69.5175H84.4138V74.483H79.4483V69.5175ZM89.3793 69.5175H94.3448V74.483H89.3793V69.5175ZM99.3103 69.5175H104.276V74.483H99.3103V69.5175ZM104.276 69.5175H109.241V74.483H104.276V69.5175ZM109.241 69.5175H114.207V74.483H109.241V69.5175ZM114.207 69.5175H119.172V74.483H114.207V69.5175ZM134.069 69.5175H139.034V74.483H134.069V69.5175ZM0 74.483H4.96552V79.4485H0V74.483ZM19.8621 74.483H24.8276V79.4485H19.8621V74.483ZM39.7241 74.483H44.6897V79.4485H39.7241V74.483ZM44.6897 74.483H49.6552V79.4485H44.6897V74.483ZM59.5862 74.483H64.5517V79.4485H59.5862V74.483ZM74.4828 74.483H79.4483V79.4485H74.4828V74.483ZM79.4483 74.483H84.4138V79.4485H79.4483V74.483ZM89.3793 74.483H94.3448V79.4485H89.3793V74.483ZM94.3448 74.483H99.3103V79.4485H94.3448V74.483ZM119.172 74.483H124.138V79.4485H119.172V74.483ZM124.138 74.483H129.103V79.4485H124.138V74.483ZM129.103 74.483H134.069V79.4485H129.103V74.483ZM0 79.4485H4.96552V84.414H0V79.4485ZM14.8966 79.4485H19.8621V84.414H14.8966V79.4485ZM19.8621 79.4485H24.8276V84.414H19.8621V79.4485ZM24.8276 79.4485H29.7931V84.414H24.8276V79.4485ZM29.7931 79.4485H34.7586V84.414H29.7931V79.4485ZM34.7586 79.4485H39.7241V84.414H34.7586V79.4485ZM44.6897 79.4485H49.6552V84.414H44.6897V79.4485ZM49.6552 79.4485H54.6207V84.414H49.6552V79.4485ZM54.6207 79.4485H59.5862V84.414H54.6207V79.4485ZM59.5862 79.4485H64.5517V84.414H59.5862V79.4485ZM64.5517 79.4485H69.5172V84.414H64.5517V79.4485ZM69.5172 79.4485H74.4828V84.414H69.5172V79.4485ZM74.4828 79.4485H79.4483V84.414H74.4828V79.4485ZM79.4483 79.4485H84.4138V84.414H79.4483V79.4485ZM84.4138 79.4485H89.3793V84.414H84.4138V79.4485ZM89.3793 79.4485H94.3448V84.414H89.3793V79.4485ZM99.3103 79.4485H104.276V84.414H99.3103V79.4485ZM104.276 79.4485H109.241V84.414H104.276V79.4485ZM114.207 79.4485H119.172V84.414H114.207V79.4485ZM124.138 79.4485H129.103V84.414H124.138V79.4485ZM129.103 79.4485H134.069V84.414H129.103V79.4485ZM0 84.414H4.96552V89.3796H0V84.414ZM4.96552 84.414H9.93103V89.3796H4.96552V84.414ZM14.8966 84.414H19.8621V89.3796H14.8966V84.414ZM19.8621 84.414H24.8276V89.3796H19.8621V84.414ZM44.6897 84.414H49.6552V89.3796H44.6897V84.414ZM54.6207 84.414H59.5862V89.3796H54.6207V84.414ZM59.5862 84.414H64.5517V89.3796H59.5862V84.414ZM64.5517 84.414H69.5172V89.3796H64.5517V84.414ZM84.4138 84.414H89.3793V89.3796H84.4138V84.414ZM99.3103 84.414H104.276V89.3796H99.3103V84.414ZM109.241 84.414H114.207V89.3796H109.241V84.414ZM114.207 84.414H119.172V89.3796H114.207V84.414ZM119.172 84.414H124.138V89.3796H119.172V84.414ZM139.034 84.414H144V89.3796H139.034V84.414ZM0 89.3796H4.96552V94.3451H0V89.3796ZM4.96552 89.3796H9.93103V94.3451H4.96552V89.3796ZM19.8621 89.3796H24.8276V94.3451H19.8621V89.3796ZM29.7931 89.3796H34.7586V94.3451H29.7931V89.3796ZM64.5517 89.3796H69.5172V94.3451H64.5517V89.3796ZM69.5172 89.3796H74.4828V94.3451H69.5172V89.3796ZM74.4828 89.3796H79.4483V94.3451H74.4828V89.3796ZM84.4138 89.3796H89.3793V94.3451H84.4138V89.3796ZM94.3448 89.3796H99.3103V94.3451H94.3448V89.3796ZM124.138 89.3796H129.103V94.3451H124.138V89.3796ZM139.034 89.3796H144V94.3451H139.034V89.3796ZM0 94.3451H4.96552V99.3106H0V94.3451ZM9.93103 94.3451H14.8966V99.3106H9.93103V94.3451ZM14.8966 94.3451H19.8621V99.3106H14.8966V94.3451ZM24.8276 94.3451H29.7931V99.3106H24.8276V94.3451ZM39.7241 94.3451H44.6897V99.3106H39.7241V94.3451ZM44.6897 94.3451H49.6552V99.3106H44.6897V94.3451ZM49.6552 94.3451H54.6207V99.3106H49.6552V94.3451ZM59.5862 94.3451H64.5517V99.3106H59.5862V94.3451ZM94.3448 94.3451H99.3103V99.3106H94.3448V94.3451ZM99.3103 94.3451H104.276V99.3106H99.3103V94.3451ZM104.276 94.3451H109.241V99.3106H104.276V94.3451ZM109.241 94.3451H114.207V99.3106H109.241V94.3451ZM114.207 94.3451H119.172V99.3106H114.207V94.3451ZM124.138 94.3451H129.103V99.3106H124.138V94.3451ZM139.034 94.3451H144V99.3106H139.034V94.3451ZM0 99.3106H4.96552V104.276H0V99.3106ZM29.7931 99.3106H34.7586V104.276H29.7931V99.3106ZM34.7586 99.3106H39.7241V104.276H34.7586V99.3106ZM39.7241 99.3106H44.6897V104.276H39.7241V99.3106ZM49.6552 99.3106H54.6207V104.276H49.6552V99.3106ZM59.5862 99.3106H64.5517V104.276H59.5862V99.3106ZM64.5517 99.3106H69.5172V104.276H64.5517V99.3106ZM74.4828 99.3106H79.4483V104.276H74.4828V99.3106ZM84.4138 99.3106H89.3793V104.276H84.4138V99.3106ZM99.3103 99.3106H104.276V104.276H99.3103V99.3106ZM104.276 99.3106H109.241V104.276H104.276V99.3106ZM109.241 99.3106H114.207V104.276H109.241V99.3106ZM114.207 99.3106H119.172V104.276H114.207V99.3106ZM119.172 99.3106H124.138V104.276H119.172V99.3106ZM124.138 99.3106H129.103V104.276H124.138V99.3106ZM129.103 99.3106H134.069V104.276H129.103V99.3106ZM139.034 99.3106H144V104.276H139.034V99.3106ZM39.7241 104.276H44.6897V109.242H39.7241V104.276ZM44.6897 104.276H49.6552V109.242H44.6897V104.276ZM54.6207 104.276H59.5862V109.242H54.6207V104.276ZM59.5862 104.276H64.5517V109.242H59.5862V104.276ZM64.5517 104.276H69.5172V109.242H64.5517V104.276ZM69.5172 104.276H74.4828V109.242H69.5172V104.276ZM74.4828 104.276H79.4483V109.242H74.4828V104.276ZM89.3793 104.276H94.3448V109.242H89.3793V104.276ZM94.3448 104.276H99.3103V109.242H94.3448V104.276ZM99.3103 104.276H104.276V109.242H99.3103V104.276ZM119.172 104.276H124.138V109.242H119.172V104.276ZM124.138 104.276H129.103V109.242H124.138V104.276ZM129.103 104.276H134.069V109.242H129.103V104.276ZM134.069 104.276H139.034V109.242H134.069V104.276ZM0 109.242H4.96552V114.207H0V109.242ZM4.96552 109.242H9.93103V114.207H4.96552V109.242ZM9.93103 109.242H14.8966V114.207H9.93103V109.242ZM14.8966 109.242H19.8621V114.207H14.8966V109.242ZM19.8621 109.242H24.8276V114.207H19.8621V109.242ZM24.8276 109.242H29.7931V114.207H24.8276V109.242ZM29.7931 109.242H34.7586V114.207H29.7931V109.242ZM39.7241 109.242H44.6897V114.207H39.7241V109.242ZM49.6552 109.242H54.6207V114.207H49.6552V109.242ZM59.5862 109.242H64.5517V114.207H59.5862V109.242ZM64.5517 109.242H69.5172V114.207H64.5517V109.242ZM74.4828 109.242H79.4483V114.207H74.4828V109.242ZM89.3793 109.242H94.3448V114.207H89.3793V109.242ZM94.3448 109.242H99.3103V114.207H94.3448V109.242ZM99.3103 109.242H104.276V114.207H99.3103V109.242ZM109.241 109.242H114.207V114.207H109.241V109.242ZM119.172 109.242H124.138V114.207H119.172V109.242ZM0 114.207H4.96552V119.173H0V114.207ZM29.7931 114.207H34.7586V119.173H29.7931V114.207ZM44.6897 114.207H49.6552V119.173H44.6897V114.207ZM49.6552 114.207H54.6207V119.173H49.6552V114.207ZM54.6207 114.207H59.5862V119.173H54.6207V114.207ZM64.5517 114.207H69.5172V119.173H64.5517V114.207ZM74.4828 114.207H79.4483V119.173H74.4828V114.207ZM89.3793 114.207H94.3448V119.173H89.3793V114.207ZM94.3448 114.207H99.3103V119.173H94.3448V114.207ZM99.3103 114.207H104.276V119.173H99.3103V114.207ZM119.172 114.207H124.138V119.173H119.172V114.207ZM124.138 114.207H129.103V119.173H124.138V114.207ZM134.069 114.207H139.034V119.173H134.069V114.207ZM139.034 114.207H144V119.173H139.034V114.207ZM0 119.173H4.96552V124.138H0V119.173ZM9.93103 119.173H14.8966V124.138H9.93103V119.173ZM14.8966 119.173H19.8621V124.138H14.8966V119.173ZM19.8621 119.173H24.8276V124.138H19.8621V119.173ZM29.7931 119.173H34.7586V124.138H29.7931V119.173ZM44.6897 119.173H49.6552V124.138H44.6897V119.173ZM49.6552 119.173H54.6207V124.138H49.6552V119.173ZM54.6207 119.173H59.5862V124.138H54.6207V119.173ZM64.5517 119.173H69.5172V124.138H64.5517V119.173ZM69.5172 119.173H74.4828V124.138H69.5172V119.173ZM74.4828 119.173H79.4483V124.138H74.4828V119.173ZM79.4483 119.173H84.4138V124.138H79.4483V119.173ZM84.4138 119.173H89.3793V124.138H84.4138V119.173ZM89.3793 119.173H94.3448V124.138H89.3793V119.173ZM94.3448 119.173H99.3103V124.138H94.3448V119.173ZM99.3103 119.173H104.276V124.138H99.3103V119.173ZM104.276 119.173H109.241V124.138H104.276V119.173ZM109.241 119.173H114.207V124.138H109.241V119.173ZM114.207 119.173H119.172V124.138H114.207V119.173ZM119.172 119.173H124.138V124.138H119.172V119.173ZM134.069 119.173H139.034V124.138H134.069V119.173ZM0 124.138H4.96552V129.104H0V124.138ZM9.93103 124.138H14.8966V129.104H9.93103V124.138ZM14.8966 124.138H19.8621V129.104H14.8966V124.138ZM19.8621 124.138H24.8276V129.104H19.8621V124.138ZM29.7931 124.138H34.7586V129.104H29.7931V124.138ZM44.6897 124.138H49.6552V129.104H44.6897V124.138ZM69.5172 124.138H74.4828V129.104H69.5172V124.138ZM79.4483 124.138H84.4138V129.104H79.4483V124.138ZM84.4138 124.138H89.3793V129.104H84.4138V124.138ZM89.3793 124.138H94.3448V129.104H89.3793V124.138ZM94.3448 124.138H99.3103V129.104H94.3448V124.138ZM99.3103 124.138H104.276V129.104H99.3103V124.138ZM114.207 124.138H119.172V129.104H114.207V124.138ZM124.138 124.138H129.103V129.104H124.138V124.138ZM134.069 124.138H139.034V129.104H134.069V124.138ZM0 129.104H4.96552V134.069H0V129.104ZM9.93103 129.104H14.8966V134.069H9.93103V129.104ZM14.8966 129.104H19.8621V134.069H14.8966V129.104ZM19.8621 129.104H24.8276V134.069H19.8621V129.104ZM29.7931 129.104H34.7586V134.069H29.7931V129.104ZM44.6897 129.104H49.6552V134.069H44.6897V129.104ZM54.6207 129.104H59.5862V134.069H54.6207V129.104ZM59.5862 129.104H64.5517V134.069H59.5862V129.104ZM64.5517 129.104H69.5172V134.069H64.5517V129.104ZM69.5172 129.104H74.4828V134.069H69.5172V129.104ZM89.3793 129.104H94.3448V134.069H89.3793V129.104ZM94.3448 129.104H99.3103V134.069H94.3448V129.104ZM99.3103 129.104H104.276V134.069H99.3103V129.104ZM104.276 129.104H109.241V134.069H104.276V129.104ZM109.241 129.104H114.207V134.069H109.241V129.104ZM114.207 129.104H119.172V134.069H114.207V129.104ZM119.172 129.104H124.138V134.069H119.172V129.104ZM124.138 129.104H129.103V134.069H124.138V129.104ZM134.069 129.104H139.034V134.069H134.069V129.104ZM0 134.069H4.96552V139.035H0V134.069ZM29.7931 134.069H34.7586V139.035H29.7931V134.069ZM39.7241 134.069H44.6897V139.035H39.7241V134.069ZM44.6897 134.069H49.6552V139.035H44.6897V134.069ZM54.6207 134.069H59.5862V139.035H54.6207V134.069ZM59.5862 134.069H64.5517V139.035H59.5862V134.069ZM69.5172 134.069H74.4828V139.035H69.5172V134.069ZM74.4828 134.069H79.4483V139.035H74.4828V134.069ZM94.3448 134.069H99.3103V139.035H94.3448V134.069ZM99.3103 134.069H104.276V139.035H99.3103V134.069ZM104.276 134.069H109.241V139.035H104.276V134.069ZM119.172 134.069H124.138V139.035H119.172V134.069ZM129.103 134.069H134.069V139.035H129.103V134.069ZM139.034 134.069H144V139.035H139.034V134.069ZM0 139.035H4.96552V144H0V139.035ZM4.96552 139.035H9.93103V144H4.96552V139.035ZM9.93103 139.035H14.8966V144H9.93103V139.035ZM14.8966 139.035H19.8621V144H14.8966V139.035ZM19.8621 139.035H24.8276V144H19.8621V139.035ZM24.8276 139.035H29.7931V144H24.8276V139.035ZM29.7931 139.035H34.7586V144H29.7931V139.035ZM44.6897 139.035H49.6552V144H44.6897V139.035ZM59.5862 139.035H64.5517V144H59.5862V139.035ZM64.5517 139.035H69.5172V144H64.5517V139.035ZM69.5172 139.035H74.4828V144H69.5172V139.035ZM79.4483 139.035H84.4138V144H79.4483V139.035ZM84.4138 139.035H89.3793V144H84.4138V139.035ZM94.3448 139.035H99.3103V144H94.3448V139.035ZM109.241 139.035H114.207V144H109.241V139.035ZM119.172 139.035H124.138V144H119.172V139.035ZM129.103 139.035H134.069V144H129.103V139.035Z" fill="#EFE4D7"/>
</svg>
