<svg width="144" height="144" viewBox="0 0 144 144" fill="none" xmlns="http://www.w3.org/2000/svg">
<path d="M0 0H4.96552V4.96552H0V0ZM4.96552 0H9.93103V4.96552H4.96552V0ZM9.93103 0H14.8966V4.96552H9.93103V0ZM14.8966 0H19.8621V4.96552H14.8966V0ZM19.8621 0H24.8276V4.96552H19.8621V0ZM24.8276 0H29.7931V4.96552H24.8276V0ZM29.7931 0H34.7586V4.96552H29.7931V0ZM44.6897 0H49.6552V4.96552H44.6897V0ZM49.6552 0H54.6207V4.96552H49.6552V0ZM74.4828 0H79.4483V4.96552H74.4828V0ZM79.4483 0H84.4138V4.96552H79.4483V0ZM94.3448 0H99.3103V4.96552H94.3448V0ZM109.241 0H114.207V4.96552H109.241V0ZM114.207 0H119.172V4.96552H114.207V0ZM119.172 0H124.138V4.96552H119.172V0ZM124.138 0H129.103V4.96552H124.138V0ZM129.103 0H134.069V4.96552H129.103V0ZM134.069 0H139.034V4.96552H134.069V0ZM139.034 0H144V4.96552H139.034V0ZM0 4.96552H4.96552V9.93103H0V4.96552ZM29.7931 4.96552H34.7586V9.93103H29.7931V4.96552ZM39.7241 4.96552H44.6897V9.93103H39.7241V4.96552ZM44.6897 4.96552H49.6552V9.93103H44.6897V4.96552ZM59.5862 4.96552H64.5517V9.93103H59.5862V4.96552ZM64.5517 4.96552H69.5172V9.93103H64.5517V4.96552ZM69.5172 4.96552H74.4828V9.93103H69.5172V4.96552ZM74.4828 4.96552H79.4483V9.93103H74.4828V4.96552ZM89.3793 4.96552H94.3448V9.93103H89.3793V4.96552ZM99.3103 4.96552H104.276V9.93103H99.3103V4.96552ZM109.241 4.96552H114.207V9.93103H109.241V4.96552ZM139.034 4.96552H144V9.93103H139.034V4.96552ZM0 9.93103H4.96552V14.8966H0V9.93103ZM9.93103 9.93103H14.8966V14.8966H9.93103V9.93103ZM14.8966 9.93103H19.8621V14.8966H14.8966V9.93103ZM19.8621 9.93103H24.8276V14.8966H19.8621V9.93103ZM29.7931 9.93103H34.7586V14.8966H29.7931V9.93103ZM39.7241 9.93103H44.6897V14.8966H39.7241V9.93103ZM54.6207 9.93103H59.5862V14.8966H54.6207V9.93103ZM79.4483 9.93103H84.4138V14.8966H79.4483V9.93103ZM89.3793 9.93103H94.3448V14.8966H89.3793V9.93103ZM94.3448 9.93103H99.3103V14.8966H94.3448V9.93103ZM109.241 9.93103H114.207V14.8966H109.241V9.93103ZM119.172 9.93103H124.138V14.8966H119.172V9.93103ZM124.138 9.93103H129.103V14.8966H124.138V9.93103ZM129.103 9.93103H134.069V14.8966H129.103V9.93103ZM139.034 9.93103H144V14.8966H139.034V9.93103ZM0 14.8966H4.96552V19.8621H0V14.8966ZM9.93103 14.8966H14.8966V19.8621H9.93103V14.8966ZM14.8966 14.8966H19.8621V19.8621H14.8966V14.8966ZM19.8621 14.8966H24.8276V19.8621H19.8621V14.8966ZM29.7931 14.8966H34.7586V19.8621H29.7931V14.8966ZM44.6897 14.8966H49.6552V19.8621H44.6897V14.8966ZM49.6552 14.8966H54.6207V19.8621H49.6552V14.8966ZM54.6207 14.8966H59.5862V19.8621H54.6207V14.8966ZM69.5172 14.8966H74.4828V19.8621H69.5172V14.8966ZM84.4138 14.8966H89.3793V19.8621H84.4138V14.8966ZM89.3793 14.8966H94.3448V19.8621H89.3793V14.8966ZM99.3103 14.8966H104.276V19.8621H99.3103V14.8966ZM109.241 14.8966H114.207V19.8621H109.241V14.8966ZM119.172 14.8966H124.138V19.8621H119.172V14.8966ZM124.138 14.8966H129.103V19.8621H124.138V14.8966ZM129.103 14.8966H134.069V19.8621H129.103V14.8966ZM139.034 14.8966H144V19.8621H139.034V14.8966ZM0 19.8621H4.96552V24.8276H0V19.8621ZM9.93103 19.8621H14.8966V24.8276H9.93103V19.8621ZM14.8966 19.8621H19.8621V24.8276H14.8966V19.8621ZM19.8621 19.8621H24.8276V24.8276H19.8621V19.8621ZM29.7931 19.8621H34.7586V24.8276H29.7931V19.8621ZM44.6897 19.8621H49.6552V24.8276H44.6897V19.8621ZM49.6552 19.8621H54.6207V24.8276H49.6552V19.8621ZM59.5862 19.8621H64.5517V24.8276H59.5862V19.8621ZM69.5172 19.8621H74.4828V24.8276H69.5172V19.8621ZM79.4483 19.8621H84.4138V24.8276H79.4483V19.8621ZM84.4138 19.8621H89.3793V24.8276H84.4138V19.8621ZM94.3448 19.8621H99.3103V24.8276H94.3448V19.8621ZM109.241 19.8621H114.207V24.8276H109.241V19.8621ZM119.172 19.8621H124.138V24.8276H119.172V19.8621ZM124.138 19.8621H129.103V24.8276H124.138V19.8621ZM129.103 19.8621H134.069V24.8276H129.103V19.8621ZM139.034 19.8621H144V24.8276H139.034V19.8621ZM0 24.8276H4.96552V29.7931H0V24.8276ZM29.7931 24.8276H34.7586V29.7931H29.7931V24.8276ZM49.6552 24.8276H54.6207V29.7931H49.6552V24.8276ZM59.5862 24.8276H64.5517V29.7931H59.5862V24.8276ZM64.5517 24.8276H69.5172V29.7931H64.5517V24.8276ZM69.5172 24.8276H74.4828V29.7931H69.5172V24.8276ZM74.4828 24.8276H79.4483V29.7931H74.4828V24.8276ZM79.4483 24.8276H84.4138V29.7931H79.4483V24.8276ZM94.3448 24.8276H99.3103V29.7931H94.3448V24.8276ZM99.3103 24.8276H104.276V29.7931H99.3103V24.8276ZM109.241 24.8276H114.207V29.7931H109.241V24.8276ZM139.034 24.8276H144V29.7931H139.034V24.8276ZM0 29.7931H4.96552V34.7586H0V29.7931ZM4.96552 29.7931H9.93103V34.7586H4.96552V29.7931ZM9.93103 29.7931H14.8966V34.7586H9.93103V29.7931ZM14.8966 29.7931H19.8621V34.7586H14.8966V29.7931ZM19.8621 29.7931H24.8276V34.7586H19.8621V29.7931ZM24.8276 29.7931H29.7931V34.7586H24.8276V29.7931ZM29.7931 29.7931H34.7586V34.7586H29.7931V29.7931ZM39.7241 29.7931H44.6897V34.7586H39.7241V29.7931ZM49.6552 29.7931H54.6207V34.7586H49.6552V29.7931ZM59.5862 29.7931H64.5517V34.7586H59.5862V29.7931ZM69.5172 29.7931H74.4828V34.7586H69.5172V29.7931ZM79.4483 29.7931H84.4138V34.7586H79.4483V29.7931ZM89.3793 29.7931H94.3448V34.7586H89.3793V29.7931ZM99.3103 29.7931H104.276V34.7586H99.3103V29.7931ZM109.241 29.7931H114.207V34.7586H109.241V29.7931ZM114.207 29.7931H119.172V34.7586H114.207V29.7931ZM119.172 29.7931H124.138V34.7586H119.172V29.7931ZM124.138 29.7931H129.103V34.7586H124.138V29.7931ZM129.103 29.7931H134.069V34.7586H129.103V29.7931ZM134.069 29.7931H139.034V34.7586H134.069V29.7931ZM139.034 29.7931H144V34.7586H139.034V29.7931ZM59.5862 34.7586H64.5517V39.7241H59.5862V34.7586ZM74.4828 34.7586H79.4483V39.7241H74.4828V34.7586ZM79.4483 34.7586H84.4138V39.7241H79.4483V34.7586ZM84.4138 34.7586H89.3793V39.7241H84.4138V34.7586ZM94.3448 34.7586H99.3103V39.7241H94.3448V34.7586ZM4.96552 39.7241H9.93103V44.6897H4.96552V39.7241ZM9.93103 39.7241H14.8966V44.6897H9.93103V39.7241ZM14.8966 39.7241H19.8621V44.6897H14.8966V39.7241ZM24.8276 39.7241H29.7931V44.6897H24.8276V39.7241ZM29.7931 39.7241H34.7586V44.6897H29.7931V39.7241ZM44.6897 39.7241H49.6552V44.6897H44.6897V39.7241ZM54.6207 39.7241H59.5862V44.6897H54.6207V39.7241ZM59.5862 39.7241H64.5517V44.6897H59.5862V39.7241ZM69.5172 39.7241H74.4828V44.6897H69.5172V39.7241ZM79.4483 39.7241H84.4138V44.6897H79.4483V39.7241ZM89.3793 39.7241H94.3448V44.6897H89.3793V39.7241ZM94.3448 39.7241H99.3103V44.6897H94.3448V39.7241ZM99.3103 39.7241H104.276V44.6897H99.3103V39.7241ZM129.103 39.7241H134.069V44.6897H129.103V39.7241ZM134.069 39.7241H139.034V44.6897H134.069V39.7241ZM0 44.6897H4.96552V49.6552H0V44.6897ZM14.8966 44.6897H19.8621V49.6552H14.8966V44.6897ZM19.8621 44.6897H24.8276V49.6552H19.8621V44.6897ZM24.8276 44.6897H29.7931V49.6552H24.8276V44.6897ZM44.6897 44.6897H49.6552V49.6552H44.6897V44.6897ZM69.5172 44.6897H74.4828V49.6552H69.5172V44.6897ZM79.4483 44.6897H84.4138V49.6552H79.4483V44.6897ZM84.4138 44.6897H89.3793V49.6552H84.4138V44.6897ZM99.3103 44.6897H104.276V49.6552H99.3103V44.6897ZM109.241 44.6897H114.207V49.6552H109.241V44.6897ZM114.207 44.6897H119.172V49.6552H114.207V44.6897ZM119.172 44.6897H124.138V49.6552H119.172V44.6897ZM124.138 44.6897H129.103V49.6552H124.138V44.6897ZM129.103 44.6897H134.069V49.6552H129.103V44.6897ZM139.034 44.6897H144V49.6552H139.034V44.6897ZM4.96552 49.6552H9.93103V54.6207H4.96552V49.6552ZM9.93103 49.6552H14.8966V54.6207H9.93103V49.6552ZM14.8966 49.6552H19.8621V54.6207H14.8966V49.6552ZM19.8621 49.6552H24.8276V54.6207H19.8621V49.6552ZM24.8276 49.6552H29.7931V54.6207H24.8276V49.6552ZM29.7931 49.6552H34.7586V54.6207H29.7931V49.6552ZM39.7241 49.6552H44.6897V54.6207H39.7241V49.6552ZM49.6552 49.6552H54.6207V54.6207H49.6552V49.6552ZM54.6207 49.6552H59.5862V54.6207H54.6207V49.6552ZM59.5862 49.6552H64.5517V54.6207H59.5862V49.6552ZM74.4828 49.6552H79.4483V54.6207H74.4828V49.6552ZM89.3793 49.6552H94.3448V54.6207H89.3793V49.6552ZM109.241 49.6552H114.207V54.6207H109.241V49.6552ZM114.207 49.6552H119.172V54.6207H114.207V49.6552ZM119.172 49.6552H124.138V54.6207H119.172V49.6552ZM134.069 49.6552H139.034V54.6207H134.069V49.6552ZM0 54.6207H4.96552V59.5862H0V54.6207ZM19.8621 54.6207H24.8276V59.5862H19.8621V54.6207ZM44.6897 54.6207H49.6552V59.5862H44.6897V54.6207ZM49.6552 54.6207H54.6207V59.5862H49.6552V54.6207ZM54.6207 54.6207H59.5862V59.5862H54.6207V54.6207ZM74.4828 54.6207H79.4483V59.5862H74.4828V54.6207ZM79.4483 54.6207H84.4138V59.5862H79.4483V54.6207ZM94.3448 54.6207H99.3103V59.5862H94.3448V54.6207ZM99.3103 54.6207H104.276V59.5862H99.3103V54.6207ZM114.207 54.6207H119.172V59.5862H114.207V54.6207ZM139.034 54.6207H144V59.5862H139.034V54.6207ZM0 59.5862H4.96552V64.5517H0V59.5862ZM24.8276 59.5862H29.7931V64.5517H24.8276V59.5862ZM29.7931 59.5862H34.7586V64.5517H29.7931V59.5862ZM34.7586 59.5862H39.7241V64.5517H34.7586V59.5862ZM39.7241 59.5862H44.6897V64.5517H39.7241V59.5862ZM44.6897 59.5862H49.6552V64.5517H44.6897V59.5862ZM49.6552 59.5862H54.6207V64.5517H49.6552V59.5862ZM54.6207 59.5862H59.5862V64.5517H54.6207V59.5862ZM64.5517 59.5862H69.5172V64.5517H64.5517V59.5862ZM79.4483 59.5862H84.4138V64.5517H79.4483V59.5862ZM84.4138 59.5862H89.3793V64.5517H84.4138V59.5862ZM99.3103 59.5862H104.276V64.5517H99.3103V59.5862ZM104.276 59.5862H109.241V64.5517H104.276V59.5862ZM114.207 59.5862H119.172V64.5517H114.207V59.5862ZM124.138 59.5862H129.103V64.5517H124.138V59.5862ZM129.103 59.5862H134.069V64.5517H129.103V59.5862ZM134.069 59.5862H139.034V64.5517H134.069V59.5862ZM139.034 59.5862H144V64.5517H139.034V59.5862ZM0 64.5517H4.96552V69.5172H0V64.5517ZM4.96552 64.5517H9.93103V69.5172H4.96552V64.5517ZM14.8966 64.5517H19.8621V69.5172H14.8966V64.5517ZM39.7241 64.5517H44.6897V69.5172H39.7241V64.5517ZM44.6897 64.5517H49.6552V69.5172H44.6897V64.5517ZM79.4483 64.5517H84.4138V69.5172H79.4483V64.5517ZM84.4138 64.5517H89.3793V69.5172H84.4138V64.5517ZM94.3448 64.5517H99.3103V69.5172H94.3448V64.5517ZM109.241 64.5517H114.207V69.5172H109.241V64.5517ZM114.207 64.5517H119.172V69.5172H114.207V64.5517ZM124.138 64.5517H129.103V69.5172H124.138V64.5517ZM129.103 64.5517H134.069V69.5172H129.103V64.5517ZM139.034 64.5517H144V69.5172H139.034V64.5517ZM29.7931 69.5172H34.7586V74.4828H29.7931V69.5172ZM39.7241 69.5172H44.6897V74.4828H39.7241V69.5172ZM44.6897 69.5172H49.6552V74.4828H44.6897V69.5172ZM94.3448 69.5172H99.3103V74.4828H94.3448V69.5172ZM99.3103 69.5172H104.276V74.4828H99.3103V69.5172ZM114.207 69.5172H119.172V74.4828H114.207V69.5172ZM119.172 69.5172H124.138V74.4828H119.172V69.5172ZM124.138 69.5172H129.103V74.4828H124.138V69.5172ZM139.034 69.5172H144V74.4828H139.034V69.5172ZM0 74.4828H4.96552V79.4483H0V74.4828ZM4.96552 74.4828H9.93103V79.4483H4.96552V74.4828ZM9.93103 74.4828H14.8966V79.4483H9.93103V74.4828ZM14.8966 74.4828H19.8621V79.4483H14.8966V74.4828ZM19.8621 74.4828H24.8276V79.4483H19.8621V74.4828ZM59.5862 74.4828H64.5517V79.4483H59.5862V74.4828ZM64.5517 74.4828H69.5172V79.4483H64.5517V74.4828ZM89.3793 74.4828H94.3448V79.4483H89.3793V74.4828ZM94.3448 74.4828H99.3103V79.4483H94.3448V74.4828ZM99.3103 74.4828H104.276V79.4483H99.3103V74.4828ZM104.276 74.4828H109.241V79.4483H104.276V74.4828ZM109.241 74.4828H114.207V79.4483H109.241V74.4828ZM119.172 74.4828H124.138V79.4483H119.172V74.4828ZM124.138 74.4828H129.103V79.4483H124.138V74.4828ZM134.069 74.4828H139.034V79.4483H134.069V74.4828ZM139.034 74.4828H144V79.4483H139.034V74.4828ZM9.93103 79.4483H14.8966V84.4138H9.93103V79.4483ZM14.8966 79.4483H19.8621V84.4138H14.8966V79.4483ZM29.7931 79.4483H34.7586V84.4138H29.7931V79.4483ZM34.7586 79.4483H39.7241V84.4138H34.7586V79.4483ZM44.6897 79.4483H49.6552V84.4138H44.6897V79.4483ZM79.4483 79.4483H84.4138V84.4138H79.4483V79.4483ZM84.4138 79.4483H89.3793V84.4138H84.4138V79.4483ZM89.3793 79.4483H94.3448V84.4138H89.3793V79.4483ZM119.172 79.4483H124.138V84.4138H119.172V79.4483ZM124.138 79.4483H129.103V84.4138H124.138V79.4483ZM134.069 79.4483H139.034V84.4138H134.069V79.4483ZM9.93103 84.4138H14.8966V89.3793H9.93103V84.4138ZM14.8966 84.4138H19.8621V89.3793H14.8966V84.4138ZM44.6897 84.4138H49.6552V89.3793H44.6897V84.4138ZM79.4483 84.4138H84.4138V89.3793H79.4483V84.4138ZM84.4138 84.4138H89.3793V89.3793H84.4138V84.4138ZM94.3448 84.4138H99.3103V89.3793H94.3448V84.4138ZM99.3103 84.4138H104.276V89.3793H99.3103V84.4138ZM114.207 84.4138H119.172V89.3793H114.207V84.4138ZM124.138 84.4138H129.103V89.3793H124.138V84.4138ZM0 89.3793H4.96552V94.3448H0V89.3793ZM24.8276 89.3793H29.7931V94.3448H24.8276V89.3793ZM29.7931 89.3793H34.7586V94.3448H29.7931V89.3793ZM39.7241 89.3793H44.6897V94.3448H39.7241V89.3793ZM49.6552 89.3793H54.6207V94.3448H49.6552V89.3793ZM54.6207 89.3793H59.5862V94.3448H54.6207V89.3793ZM59.5862 89.3793H64.5517V94.3448H59.5862V89.3793ZM74.4828 89.3793H79.4483V94.3448H74.4828V89.3793ZM79.4483 89.3793H84.4138V94.3448H79.4483V89.3793ZM109.241 89.3793H114.207V94.3448H109.241V89.3793ZM114.207 89.3793H119.172V94.3448H114.207V89.3793ZM129.103 89.3793H134.069V94.3448H129.103V89.3793ZM9.93103 94.3448H14.8966V99.3103H9.93103V94.3448ZM14.8966 94.3448H19.8621V99.3103H14.8966V94.3448ZM34.7586 94.3448H39.7241V99.3103H34.7586V94.3448ZM44.6897 94.3448H49.6552V99.3103H44.6897V94.3448ZM49.6552 94.3448H54.6207V99.3103H49.6552V94.3448ZM54.6207 94.3448H59.5862V99.3103H54.6207V94.3448ZM59.5862 94.3448H64.5517V99.3103H59.5862V94.3448ZM69.5172 94.3448H74.4828V99.3103H69.5172V94.3448ZM84.4138 94.3448H89.3793V99.3103H84.4138V94.3448ZM89.3793 94.3448H94.3448V99.3103H89.3793V94.3448ZM94.3448 94.3448H99.3103V99.3103H94.3448V94.3448ZM99.3103 94.3448H104.276V99.3103H99.3103V94.3448ZM104.276 94.3448H109.241V99.3103H104.276V94.3448ZM109.241 94.3448H114.207V99.3103H109.241V94.3448ZM119.172 94.3448H124.138V99.3103H119.172V94.3448ZM124.138 94.3448H129.103V99.3103H124.138V94.3448ZM129.103 94.3448H134.069V99.3103H129.103V94.3448ZM139.034 94.3448H144V99.3103H139.034V94.3448ZM4.96552 99.3103H9.93103V104.276H4.96552V99.3103ZM9.93103 99.3103H14.8966V104.276H9.93103V99.3103ZM14.8966 99.3103H19.8621V104.276H14.8966V99.3103ZM19.8621 99.3103H24.8276V104.276H19.8621V99.3103ZM29.7931 99.3103H34.7586V104.276H29.7931V99.3103ZM39.7241 99.3103H44.6897V104.276H39.7241V99.3103ZM44.6897 99.3103H49.6552V104.276H44.6897V99.3103ZM79.4483 99.3103H84.4138V104.276H79.4483V99.3103ZM84.4138 99.3103H89.3793V104.276H84.4138V99.3103ZM89.3793 99.3103H94.3448V104.276H89.3793V99.3103ZM94.3448 99.3103H99.3103V104.276H94.3448V99.3103ZM99.3103 99.3103H104.276V104.276H99.3103V99.3103ZM104.276 99.3103H109.241V104.276H104.276V99.3103ZM109.241 99.3103H114.207V104.276H109.241V99.3103ZM114.207 99.3103H119.172V104.276H114.207V99.3103ZM119.172 99.3103H124.138V104.276H119.172V99.3103ZM129.103 99.3103H134.069V104.276H129.103V99.3103ZM134.069 99.3103H139.034V104.276H134.069V99.3103ZM39.7241 104.276H44.6897V109.241H39.7241V104.276ZM44.6897 104.276H49.6552V109.241H44.6897V104.276ZM49.6552 104.276H54.6207V109.241H49.6552V104.276ZM54.6207 104.276H59.5862V109.241H54.6207V104.276ZM59.5862 104.276H64.5517V109.241H59.5862V104.276ZM64.5517 104.276H69.5172V109.241H64.5517V104.276ZM79.4483 104.276H84.4138V109.241H79.4483V104.276ZM89.3793 104.276H94.3448V109.241H89.3793V104.276ZM94.3448 104.276H99.3103V109.241H94.3448V104.276ZM99.3103 104.276H104.276V109.241H99.3103V104.276ZM119.172 104.276H124.138V109.241H119.172V104.276ZM124.138 104.276H129.103V109.241H124.138V104.276ZM139.034 104.276H144V109.241H139.034V104.276ZM0 109.241H4.96552V114.207H0V109.241ZM4.96552 109.241H9.93103V114.207H4.96552V109.241ZM9.93103 109.241H14.8966V114.207H9.93103V109.241ZM14.8966 109.241H19.8621V114.207H14.8966V109.241ZM19.8621 109.241H24.8276V114.207H19.8621V109.241ZM24.8276 109.241H29.7931V114.207H24.8276V109.241ZM29.7931 109.241H34.7586V114.207H29.7931V109.241ZM54.6207 109.241H59.5862V114.207H54.6207V109.241ZM69.5172 109.241H74.4828V114.207H69.5172V109.241ZM84.4138 109.241H89.3793V114.207H84.4138V109.241ZM94.3448 109.241H99.3103V114.207H94.3448V109.241ZM99.3103 109.241H104.276V114.207H99.3103V109.241ZM109.241 109.241H114.207V114.207H109.241V109.241ZM119.172 109.241H124.138V114.207H119.172V109.241ZM129.103 109.241H134.069V114.207H129.103V109.241ZM134.069 109.241H139.034V114.207H134.069V109.241ZM0 114.207H4.96552V119.172H0V114.207ZM29.7931 114.207H34.7586V119.172H29.7931V114.207ZM39.7241 114.207H44.6897V119.172H39.7241V114.207ZM44.6897 114.207H49.6552V119.172H44.6897V114.207ZM49.6552 114.207H54.6207V119.172H49.6552V114.207ZM54.6207 114.207H59.5862V119.172H54.6207V114.207ZM59.5862 114.207H64.5517V119.172H59.5862V114.207ZM69.5172 114.207H74.4828V119.172H69.5172V114.207ZM74.4828 114.207H79.4483V119.172H74.4828V114.207ZM79.4483 114.207H84.4138V119.172H79.4483V114.207ZM89.3793 114.207H94.3448V119.172H89.3793V114.207ZM99.3103 114.207H104.276V119.172H99.3103V114.207ZM119.172 114.207H124.138V119.172H119.172V114.207ZM134.069 114.207H139.034V119.172H134.069V114.207ZM0 119.172H4.96552V124.138H0V119.172ZM9.93103 119.172H14.8966V124.138H9.93103V119.172ZM14.8966 119.172H19.8621V124.138H14.8966V119.172ZM19.8621 119.172H24.8276V124.138H19.8621V119.172ZM29.7931 119.172H34.7586V124.138H29.7931V119.172ZM44.6897 119.172H49.6552V124.138H44.6897V119.172ZM69.5172 119.172H74.4828V124.138H69.5172V119.172ZM74.4828 119.172H79.4483V124.138H74.4828V119.172ZM89.3793 119.172H94.3448V124.138H89.3793V119.172ZM99.3103 119.172H104.276V124.138H99.3103V119.172ZM104.276 119.172H109.241V124.138H104.276V119.172ZM109.241 119.172H114.207V124.138H109.241V119.172ZM114.207 119.172H119.172V124.138H114.207V119.172ZM119.172 119.172H124.138V124.138H119.172V119.172ZM124.138 119.172H129.103V124.138H124.138V119.172ZM129.103 119.172H134.069V124.138H129.103V119.172ZM134.069 119.172H139.034V124.138H134.069V119.172ZM139.034 119.172H144V124.138H139.034V119.172ZM0 124.138H4.96552V129.103H0V124.138ZM9.93103 124.138H14.8966V129.103H9.93103V124.138ZM14.8966 124.138H19.8621V129.103H14.8966V124.138ZM19.8621 124.138H24.8276V129.103H19.8621V124.138ZM29.7931 124.138H34.7586V129.103H29.7931V124.138ZM39.7241 124.138H44.6897V129.103H39.7241V124.138ZM44.6897 124.138H49.6552V129.103H44.6897V124.138ZM49.6552 124.138H54.6207V129.103H49.6552V124.138ZM59.5862 124.138H64.5517V129.103H59.5862V124.138ZM79.4483 124.138H84.4138V129.103H79.4483V124.138ZM94.3448 124.138H99.3103V129.103H94.3448V124.138ZM119.172 124.138H124.138V129.103H119.172V124.138ZM124.138 124.138H129.103V129.103H124.138V124.138ZM129.103 124.138H134.069V129.103H129.103V124.138ZM134.069 124.138H139.034V129.103H134.069V124.138ZM0 129.103H4.96552V134.069H0V129.103ZM9.93103 129.103H14.8966V134.069H9.93103V129.103ZM14.8966 129.103H19.8621V134.069H14.8966V129.103ZM19.8621 129.103H24.8276V134.069H19.8621V129.103ZM29.7931 129.103H34.7586V134.069H29.7931V129.103ZM39.7241 129.103H44.6897V134.069H39.7241V129.103ZM49.6552 129.103H54.6207V134.069H49.6552V129.103ZM59.5862 129.103H64.5517V134.069H59.5862V129.103ZM69.5172 129.103H74.4828V134.069H69.5172V129.103ZM74.4828 129.103H79.4483V134.069H74.4828V129.103ZM79.4483 129.103H84.4138V134.069H79.4483V129.103ZM99.3103 129.103H104.276V134.069H99.3103V129.103ZM114.207 129.103H119.172V134.069H114.207V129.103ZM139.034 129.103H144V134.069H139.034V129.103ZM0 134.069H4.96552V139.034H0V134.069ZM29.7931 134.069H34.7586V139.034H29.7931V134.069ZM39.7241 134.069H44.6897V139.034H39.7241V134.069ZM49.6552 134.069H54.6207V139.034H49.6552V134.069ZM59.5862 134.069H64.5517V139.034H59.5862V134.069ZM79.4483 134.069H84.4138V139.034H79.4483V134.069ZM94.3448 134.069H99.3103V139.034H94.3448V134.069ZM109.241 134.069H114.207V139.034H109.241V134.069ZM119.172 134.069H124.138V139.034H119.172V134.069ZM134.069 134.069H139.034V139.034H134.069V134.069ZM0 139.034H4.96552V144H0V139.034ZM4.96552 139.034H9.93103V144H4.96552V139.034ZM9.93103 139.034H14.8966V144H9.93103V139.034ZM14.8966 139.034H19.8621V144H14.8966V139.034ZM19.8621 139.034H24.8276V144H19.8621V139.034ZM24.8276 139.034H29.7931V144H24.8276V139.034ZM29.7931 139.034H34.7586V144H29.7931V139.034ZM64.5517 139.034H69.5172V144H64.5517V139.034ZM74.4828 139.034H79.4483V144H74.4828V139.034ZM79.4483 139.034H84.4138V144H79.4483V139.034ZM89.3793 139.034H94.3448V144H89.3793V139.034ZM94.3448 139.034H99.3103V144H94.3448V139.034ZM99.3103 139.034H104.276V144H99.3103V139.034ZM104.276 139.034H109.241V144H104.276V139.034ZM109.241 139.034H114.207V144H109.241V139.034ZM114.207 139.034H119.172V144H114.207V139.034ZM134.069 139.034H139.034V144H134.069V139.034Z" fill="#EFE4D7"/>
</svg>
